<svg width="400" height="400" viewBox="0 0 400 400" fill="none" xmlns="http://www.w3.org/2000/svg">
<path d="M1.52588e-05 61H175V90H1.52588e-05V61Z" fill="#336663"/>
<path d="M1.52588e-05 313H400V342H1.52588e-05V313Z" fill="#336663"/>
<path fill-rule="evenodd" clip-rule="evenodd" d="M317.864 361.597C284.811 385.746 244.07 400 200 400C89.5431 400 1.52588e-05 310.457 1.52588e-05 200C1.52588e-05 144.352 22.7274 94.0117 59.4064 57.7557L78.3051 79.9729C47.8621 110.836 29.0727 153.224 29.0727 200C29.0727 294.401 105.599 370.927 200 370.927C236.883 370.927 271.037 359.245 298.965 339.38L317.864 361.597ZM339.984 342.844L357.063 362.922L334.974 381.712L317.864 361.597C325.687 355.881 333.08 349.611 339.984 342.844ZM321.092 320.635C351.89 289.721 370.927 247.084 370.927 200C370.927 105.599 294.401 29.0727 200 29.0727C162.81 29.0727 128.394 40.9498 100.339 61.1179L81.4471 38.9086C114.622 14.453 155.623 0 200 0C310.457 0 400 89.5431 400 200C400 255.956 377.021 306.545 339.984 342.844L321.092 320.635ZM321.092 320.635C314.268 327.485 306.865 333.76 298.965 339.38L78.3051 79.9729C85.0962 73.088 92.4672 66.7766 100.339 61.1179L321.092 320.635ZM81.4471 38.9086C73.6484 44.6575 66.2823 50.9591 59.4064 57.7557L42.6265 38.0294L64.7159 19.2395L81.4471 38.9086Z" fill="#336663"/>
<path d="M185 167.826L292.115 76L310.99 98.0171L203.874 189.843L185 167.826Z" fill="#336663"/>
<path d="M225 61H400V90H225V61Z" fill="#336663"/>
<path d="M298 313V89.9999H327V313H298Z" fill="#336663"/>
<path d="M72 250V90H101V250H72Z" fill="#336663"/>
<path d="M37 297.175C41.2972 298.365 45.8244 299 50.5 299C78.2235 299 100.729 276.66 100.998 249H71.994C71.7221 260.367 62.203 269.5 50.5 269.5C45.3867 269.5 40.6904 267.756 37 264.845V297.175Z" fill="#336663"/>
</svg>